# xmcd
#
# Track frame offsets: 
#        150
#        12396
#        26132
#        40880
#        53699
#        75090
#        89235
#        102681
#        117202
#        138418
#        151772
#        173170
#
# Disc length: 2507 seconds
#
# Revision: 0
# Processed by: cddbd v1.5.2PL0 Copyright (c) Steve Scherf et al.
# Submitted via: ExactAudioCopy v0.95b4
#
DISCID=9409c90c
DTITLE=Mike Scott - Blue Moon of Kentucky
DYEAR=1900
DGENRE=Bluegrass
TTITLE0=Blue Moon of Kentucky
TTITLE1=Footprints In The Snow
TTITLE2=John Henry
TTITLE3=Uncle Pen
TTITLE4=Ketucky Waltz
TTITLE5=Road To Columbus
TTITLE6=Crying Holy
TTITLE7=Bluegrass Breakdown
TTITLE8=My Rose of Old Kentucky
TTITLE9=Swing Low Sweet Chariot
TTITLE10=Jerusalem Ridge
TTITLE11=Molly and Tenbooks
EXTD=
EXTT0=
EXTT1=
EXTT2=
EXTT3=
EXTT4=
EXTT5=
EXTT6=
EXTT7=
EXTT8=
EXTT9=
EXTT10=
EXTT11=
PLAYORDER=
